<svg width="20" height="22" viewBox="0 0 20 22" fill="none" xmlns="http://www.w3.org/2000/svg">
<g id="Group 1">
<path id="Vector" d="M10.005 6.75V12M19 7.58V14.42C19 15.54 18.4056 16.58 17.4447 17.15L11.5603 20.58C10.5993 21.14 9.41057 21.14 8.43974 20.58L2.55531 17.15C2.08156 16.8727 1.68844 16.4745 1.41543 15.9953C1.14242 15.5161 0.99915 14.9728 1 14.42V7.58C1 6.46 1.59439 5.42 2.55531 4.85L8.43974 1.42C9.40066 0.86 10.5894 0.86 11.5603 1.42L17.4447 4.85C18.4056 5.42 19 6.45 19 7.58Z" stroke="#FF5C67" stroke-width="1.5" stroke-linecap="round" stroke-linejoin="round"/>
<path id="Vector_2" d="M10.005 15.2V15.2999" stroke="#FF5C67" stroke-width="2" stroke-linecap="round" stroke-linejoin="round"/>
</g>
</svg>
